<svg xmlns="http://www.w3.org/2000/svg" width="1440" height="440" viewBox="0 0 1440 440" role="img" aria-labelledby="title desc">
  <title id="title">NewsClaw AI industry news operations loop</title>
  <desc id="desc">Discovery, evidence verification, durable team execution, human review, delivery, and memory and Skill feedback.</desc>
  <rect width="1440" height="440" fill="#f6f8fb"/>
  <text x="64" y="72" fill="#18212b" font-family="Inter, PingFang SC, sans-serif" font-size="28" font-weight="700">AI 动态内容运营闭环</text>
  <text x="64" y="106" fill="#7a8998" font-family="Inter, PingFang SC, sans-serif" font-size="16">每一步都有明确状态、归属数据和下一步准入条件</text>
  <g fill="none" stroke="#b8c5d1" stroke-width="2" stroke-linecap="round">
    <path d="M260 235H316"/><path d="M488 235H544"/><path d="M716 235H772"/><path d="M944 235H1000"/><path d="M1172 235H1228"/>
  </g>
  <g fill="#b8c5d1"><path d="m316 230 10 5-10 5z"/><path d="m544 230 10 5-10 5z"/><path d="m772 230 10 5-10 5z"/><path d="m1000 230 10 5-10 5z"/><path d="m1228 230 10 5-10 5z"/></g>
  <g font-family="Inter, PingFang SC, sans-serif">
    <g transform="translate(64 154)"><rect width="196" height="162" rx="8" fill="#fff" stroke="#d7dee7"/><rect width="196" height="4" rx="2" fill="#2563eb"/><circle cx="28" cy="34" r="12" fill="#e0ecff"/><path d="M22 34h12M22 39h8M22 29h12" stroke="#2563eb" stroke-width="2" stroke-linecap="round"/><text x="52" y="39" fill="#18212b" font-size="17" font-weight="700">发现候选</text><text x="20" y="78" fill="#526171" font-size="14">Cron / 飞书指令</text><text x="20" y="104" fill="#526171" font-size="14">来源白名单与去重</text><text x="20" y="132" fill="#7a8998" font-size="12">candidate / researching</text></g>
    <g transform="translate(292 154)"><rect width="196" height="162" rx="8" fill="#fff" stroke="#d7dee7"/><rect width="196" height="4" rx="2" fill="#0f766e"/><circle cx="28" cy="34" r="12" fill="#dff5f1"/><path d="m22 34 4 4 8-9" stroke="#0f766e" stroke-width="2.2" stroke-linecap="round" stroke-linejoin="round"/><text x="52" y="39" fill="#18212b" font-size="17" font-weight="700">证据核验</text><text x="20" y="78" fill="#526171" font-size="14">官方主证据优先</text><text x="20" y="104" fill="#526171" font-size="14">Claims 对齐与冲突闸门</text><text x="20" y="132" fill="#7a8998" font-size="12">verified / conflicted</text></g>
    <g transform="translate(520 154)"><rect width="196" height="162" rx="8" fill="#fff" stroke="#d7dee7"/><rect width="196" height="4" rx="2" fill="#2563eb"/><circle cx="28" cy="34" r="12" fill="#e0ecff"/><path d="M22 37h12M24 31h8M24 43h8" stroke="#2563eb" stroke-width="2" stroke-linecap="round"/><text x="52" y="39" fill="#18212b" font-size="17" font-weight="700">证据归档</text><text x="20" y="78" fill="#526171" font-size="14">事件域保存正文证据</text><text x="20" y="104" fill="#526171" font-size="14">Wiki 引用与抓取记录</text><text x="20" y="132" fill="#7a8998" font-size="12">可追溯，不塞入 Memory</text></g>
    <g transform="translate(748 154)"><rect width="196" height="162" rx="8" fill="#fff" stroke="#d7dee7"/><rect width="196" height="4" rx="2" fill="#7c3aed"/><circle cx="28" cy="34" r="12" fill="#ede9fe"/><circle cx="24" cy="33" r="3" fill="#7c3aed"/><circle cx="32" cy="29" r="3" fill="#7c3aed"/><circle cx="34" cy="39" r="3" fill="#7c3aed"/><text x="52" y="39" fill="#18212b" font-size="17" font-weight="700">Team Run</text><text x="20" y="78" fill="#526171" font-size="14">持久化 runId 与 DAG</text><text x="20" y="104" fill="#526171" font-size="14">lease / retry / recovery</text><text x="20" y="132" fill="#7a8998" font-size="12">in_production</text></g>
    <g transform="translate(976 154)"><rect width="196" height="162" rx="8" fill="#fff" stroke="#d7dee7"/><rect width="196" height="4" rx="2" fill="#f05d4e"/><circle cx="28" cy="34" r="12" fill="#ffe8e5"/><path d="M28 24v12M28 41v1" stroke="#f05d4e" stroke-width="2.2" stroke-linecap="round"/><text x="52" y="39" fill="#18212b" font-size="17" font-weight="700">人工审批</text><text x="20" y="78" fill="#526171" font-size="14">合规扫描与复核</text><text x="20" y="104" fill="#526171" font-size="14">外部副作用幂等账本</text><text x="20" y="132" fill="#7a8998" font-size="12">对外交付前的闸门</text></g>
    <g transform="translate(1204 154)"><rect width="172" height="162" rx="8" fill="#fff" stroke="#d7dee7"/><rect width="172" height="4" rx="2" fill="#0f766e"/><circle cx="28" cy="34" r="12" fill="#dff5f1"/><path d="M22 29h12v10H22zM25 25h6" fill="none" stroke="#0f766e" stroke-width="2" stroke-linejoin="round"/><text x="52" y="39" fill="#18212b" font-size="17" font-weight="700">交付反馈</text><text x="20" y="78" fill="#526171" font-size="14">飞书复核与通知</text><text x="20" y="104" fill="#526171" font-size="14">小红书素材 ZIP</text><text x="20" y="132" fill="#7a8998" font-size="12">published / archived</text></g>
  </g>
  <path d="M1290 338c0 46-103 52-182 52H520c-118 0-158-10-158-49" fill="none" stroke="#0f766e" stroke-width="2" stroke-linecap="round" stroke-dasharray="5 6"/>
  <path d="m356 337 6 11-12 0z" fill="#0f766e"/>
  <text x="672" y="417" fill="#0f766e" font-family="Inter, PingFang SC, sans-serif" font-size="14" font-weight="600">Memory 记录稳定偏好与反馈，Routine Mining 仅产出待审 Skill proposal</text>
</svg>
